<?xml version="1.0" encoding="utf-8"?>
<!-- Generator: Adobe Illustrator 26.5.3, SVG Export Plug-In . SVG Version: 6.00 Build 0)  -->
<svg version="1.1" id="Camada_1" xmlns="http://www.w3.org/2000/svg" xmlns:xlink="http://www.w3.org/1999/xlink" x="0px" y="0px"
	 viewBox="0 0 32 32" style="enable-background:new 0 0 32 32;" xml:space="preserve">
<g>
	<path d="M28.1,5.4L26.7,4c-0.5-0.5-1.6-0.5-2.1,0l-8.3,8.3l-3.9,3.9l-8.3,8.3c-0.5,0.5-0.5,1.6,0,2.1L5.5,28c0.5,0.5,1.6,0.5,2.1,0
		l8.3-8.3l3.9-3.9l8.3-8.3C28.6,6.9,28.6,6,28.1,5.4z"/>
	<path d="M26.6,28.1l1.4-1.4c0.5-0.5,0.5-1.6,0-2.1l-8.3-8.3l-3.9-3.9L7.6,3.9C7,3.4,6,3.4,5.4,3.9L3.9,5.4C3.4,6,3.4,7,3.9,7.6
		l8.3,8.3l3.9,3.9l8.3,8.3C25.1,28.6,26,28.6,26.6,28.1z"/>
</g>
<g>
	<path d="M32,17.1v-2c0-0.8-0.8-1.5-1.5-1.5l-11.7,0l-5.5,0l-11.7,0c-0.8,0-1.5,0.8-1.5,1.5l0,2c0,0.8,0.8,1.5,1.5,1.5l11.7,0h5.5
		l11.7,0C31.3,18.5,32,17.8,32,17.1z"/>
	<path d="M14.9,32h2c0.8,0,1.5-0.8,1.5-1.5V18.8v-5.5l0.1-11.8c0-0.8-0.8-1.5-1.5-1.5h-2.1c-0.8,0-1.5,0.8-1.5,1.5l0,11.7l0,5.5
		l0,11.7C13.5,31.3,14.2,32,14.9,32z"/>
</g>
</svg>
