<?xml version="1.0" encoding="utf-8"?>
<!-- Generator: Adobe Illustrator 26.5.3, SVG Export Plug-In . SVG Version: 6.00 Build 0)  -->
<svg version="1.1" id="Camada_1" xmlns="http://www.w3.org/2000/svg" xmlns:xlink="http://www.w3.org/1999/xlink" x="0px" y="0px"
	 viewBox="0 0 32 32" style="enable-background:new 0 0 32 32;" xml:space="preserve">
<style type="text/css">
	.st0{fill:#A22324;}
</style>
<g>
	<path class="st0" d="M29.6,4.1l-1.6-1.6c-0.6-0.6-1.8-0.6-2.4,0l-9.3,9.3l-4.4,4.4l-9.3,9.3c-0.6,0.6-0.6,1.8,0,2.4l1.6,1.6
		c0.6,0.6,1.8,0.6,2.4,0l9.3-9.3l4.4-4.4l9.3-9.3C30.2,5.8,30.2,4.7,29.6,4.1z"/>
	<path class="st0" d="M27.9,29.6l1.6-1.6c0.6-0.6,0.6-1.8,0-2.4l-9.3-9.3l-4.4-4.4L6.5,2.4c-0.6-0.6-1.8-0.6-2.4,0L2.4,4.1
		c-0.6,0.6-0.6,1.8,0,2.4l9.3,9.3l4.4,4.4l9.3,9.3C26.2,30.2,27.3,30.2,27.9,29.6z"/>
</g>
</svg>
