<?xml version="1.0" encoding="utf-8"?>
<!-- Generator: Adobe Illustrator 26.5.3, SVG Export Plug-In . SVG Version: 6.00 Build 0)  -->
<svg version="1.1" id="Camada_1" xmlns="http://www.w3.org/2000/svg" xmlns:xlink="http://www.w3.org/1999/xlink" x="0px" y="0px"
	 viewBox="0 0 32 32" style="enable-background:new 0 0 32 32;" xml:space="preserve">
<path d="M32,4V1.7C32,0.8,31.2,0,30.3,0l-9.1,0h-6.3H1.7C0.8,0,0,0.8,0,1.7V4c0,0.9,0.8,1.7,1.7,1.7h13.2h6.3h9.1
	C31.2,5.7,32,4.9,32,4z"/>
<path d="M28,32h2.3c0.9,0,1.7-0.8,1.7-1.7V17.1v-6.3v-8c0-0.9-0.8-1.7-1.7-1.7H28c-0.9,0-1.7,0.8-1.7,1.7v8v6.3v13.2
	C26.3,31.2,27.1,32,28,32z"/>
</svg>
