<?xml version="1.0" encoding="utf-8"?>
<!-- Generator: Adobe Illustrator 26.5.3, SVG Export Plug-In . SVG Version: 6.00 Build 0)  -->
<svg version="1.1" id="Camada_1" xmlns="http://www.w3.org/2000/svg" xmlns:xlink="http://www.w3.org/1999/xlink" x="0px" y="0px"
	 viewBox="0 0 32 32" style="enable-background:new 0 0 32 32;" xml:space="preserve">
<path id="Icon_material-people" d="M21.8,14.5c2.4,0,4.4-2,4.4-4.4s-2-4.4-4.4-4.4s-4.4,2-4.4,4.4C17.4,12.6,19.4,14.5,21.8,14.5
	L21.8,14.5z M10.2,14.5c2.4,0,4.4-2,4.4-4.4s-2-4.4-4.4-4.4s-4.4,2-4.4,4.4C5.8,12.6,7.7,14.5,10.2,14.5L10.2,14.5z M10.2,17.5
	c-3.4,0-10.2,1.7-10.2,5v3.6h20.4v-3.6C20.4,19.2,13.6,17.5,10.2,17.5z M21.8,17.5c-0.4,0-0.9,0-1.4,0.1c1.7,1.1,2.8,3,2.9,5v3.6H32
	v-3.6C32,19.2,25.2,17.5,21.8,17.5z"/>
<path d="M30.7,2.5l-0.8-0.8c-0.3-0.3-1.2,0-2,0.8L17.4,13l-5,5L1.7,28.6c-0.7,0.7-1.1,1.6-0.8,2l0.8,0.8c0.3,0.3,1.2,0,2-0.8
	L14.3,20l5-5L30,4.4C30.7,3.7,31,2.8,30.7,2.5z"/>
</svg>
