<?xml version="1.0" encoding="utf-8"?>
<!-- Generator: Adobe Illustrator 26.5.3, SVG Export Plug-In . SVG Version: 6.00 Build 0)  -->
<svg version="1.1" id="Camada_1" xmlns="http://www.w3.org/2000/svg" xmlns:xlink="http://www.w3.org/1999/xlink" x="0px" y="0px"
	 viewBox="0 0 32 32" style="enable-background:new 0 0 32 32;" xml:space="preserve">
<path d="M32,28v2.3c0,0.9-0.8,1.7-1.7,1.7h-9.1h-6.3H1.7C0.8,32,0,31.2,0,30.3V28c0-0.9,0.8-1.7,1.7-1.7h13.2h6.3h9.1
	C31.2,26.3,32,27.1,32,28z"/>
<path d="M28,0h2.3C31.2,0,32,0.8,32,1.7v13.2v6.3v8c0,0.9-0.8,1.7-1.7,1.7H28c-0.9,0-1.7-0.8-1.7-1.7v-8v-6.3V1.7
	C26.3,0.8,27.1,0,28,0z"/>
</svg>
