<?xml version="1.0" encoding="utf-8"?>
<!-- Generator: Adobe Illustrator 26.5.3, SVG Export Plug-In . SVG Version: 6.00 Build 0)  -->
<svg version="1.1" id="Camada_1" xmlns="http://www.w3.org/2000/svg" xmlns:xlink="http://www.w3.org/1999/xlink" x="0px" y="0px"
	 viewBox="0 0 32 32" style="enable-background:new 0 0 32 32;" xml:space="preserve">
<path id="Icon_material-people" d="M21.8,14.5c2.4,0,4.4-2,4.4-4.4s-2-4.4-4.4-4.4s-4.4,2-4.4,4.4C17.4,12.6,19.4,14.5,21.8,14.5
	C21.8,14.5,21.8,14.5,21.8,14.5z M10.2,14.5c2.4,0,4.4-2,4.4-4.4s-2-4.4-4.4-4.4s-4.4,2-4.4,4.4C5.8,12.6,7.7,14.5,10.2,14.5
	C10.2,14.5,10.2,14.5,10.2,14.5z M10.2,17.5C6.8,17.5,0,19.2,0,22.5v3.6h20.4v-3.6C20.4,19.2,13.6,17.5,10.2,17.5z M21.8,17.5
	c-0.4,0-0.9,0-1.4,0.1c1.7,1.1,2.8,3,2.9,5v3.6H32v-3.6C32,19.2,25.2,17.5,21.8,17.5z"/>
</svg>
