<?xml version="1.0" encoding="utf-8"?>
<!-- Generator: Adobe Illustrator 26.5.3, SVG Export Plug-In . SVG Version: 6.00 Build 0)  -->
<svg version="1.1" id="Camada_1" xmlns="http://www.w3.org/2000/svg" xmlns:xlink="http://www.w3.org/1999/xlink" x="0px" y="0px"
	 viewBox="0 0 32 32" style="enable-background:new 0 0 32 32;" xml:space="preserve">
<style type="text/css">
	.st0{fill:#FFFFFF;}
</style>
<path id="Icon_material-chat-bubble" d="M28,1H4C2.3,1,1,2.3,1,4v27l6-6h21c1.7,0,3-1.3,3-3V4C31,2.3,29.7,1,28,1z"/>
<g>
	<path d="M2.1,27c-0.3,0-0.5-0.1-0.6-0.2l-0.7-0.7c-0.5-0.7,0-1.8,0.7-2.4l9.3-9.2L24.3,0.9c0.6-0.6,1.3-0.9,1.8-0.9
		c0.3,0,0.5,0.1,0.6,0.2l0.7,0.7c0.5,0.5,0.1,1.6-0.6,2.4l-9.3,9.2L3.9,26.1C3.3,26.7,2.6,27,2.1,27L2.1,27z"/>
	<path class="st0" d="M26.1,0.4c0.1,0,0.2,0,0.3,0.1l0.7,0.7c0.3,0.3,0,1-0.6,1.7l-9.3,9.2l-4.4,4.4l-9.2,9.2
		c-0.5,0.5-1.1,0.8-1.5,0.8c-0.1,0-0.2,0-0.3-0.1l-0.7-0.7c-0.3-0.3,0.1-1.1,0.7-1.7l9.3-9.2l4.4-4.4l9.1-9.1
		C25.1,0.7,25.7,0.4,26.1,0.4 M26.1-0.6c-0.7,0-1.5,0.4-2.2,1.1l-9.1,9.1L10.4,14l-9.3,9.2c-0.9,0.9-1.5,2.2-0.8,3.1l0,0.1l0.1,0.1
		l0.7,0.7c0.3,0.3,0.6,0.4,1,0.4c0.7,0,1.5-0.4,2.2-1.1l9.2-9.2l4.4-4.4l9.3-9.2c0.9-0.9,1.4-2.3,0.6-3.1l-0.7-0.7
		C26.8-0.4,26.5-0.6,26.1-0.6L26.1-0.6z"/>
</g>
</svg>
