<?xml version="1.0" encoding="utf-8"?>
<!-- Generator: Adobe Illustrator 26.5.3, SVG Export Plug-In . SVG Version: 6.00 Build 0)  -->
<svg version="1.1" id="Camada_1" xmlns="http://www.w3.org/2000/svg" xmlns:xlink="http://www.w3.org/1999/xlink" x="0px" y="0px"
	 viewBox="0 0 32 32" style="enable-background:new 0 0 32 32;" xml:space="preserve">
<path id="Icon_awesome-arrow-down" d="M29.5,13.6l1.6,1.6c0.7,0.7,0.7,1.7,0,2.4c0,0,0,0,0,0L17.2,31.5c-0.7,0.7-1.7,0.7-2.4,0
	c0,0,0,0,0,0L0.9,17.6c-0.7-0.7-0.7-1.7,0-2.4c0,0,0,0,0,0l1.6-1.6c0.7-0.7,1.8-0.7,2.4,0c0,0,0,0,0,0l8.2,8.6V1.7
	c0-0.9,0.8-1.7,1.7-1.7c0,0,0,0,0,0h2.3c0.9,0,1.7,0.8,1.7,1.7c0,0,0,0,0,0v20.5l8.2-8.6C27.7,12.9,28.8,12.9,29.5,13.6
	C29.5,13.6,29.5,13.6,29.5,13.6L29.5,13.6z"/>
</svg>
