<?xml version="1.0" encoding="utf-8"?>
<!-- Generator: Adobe Illustrator 26.5.3, SVG Export Plug-In . SVG Version: 6.00 Build 0)  -->
<svg version="1.1" id="Camada_1" xmlns="http://www.w3.org/2000/svg" xmlns:xlink="http://www.w3.org/1999/xlink" x="0px" y="0px"
	 viewBox="0 0 32 32" style="enable-background:new 0 0 32 32;" xml:space="preserve">
<path id="Icon_awesome-arrow-up" d="M2.5,18.4l-1.6-1.6c-0.7-0.7-0.7-1.7,0-2.4c0,0,0,0,0,0L14.8,0.5c0.7-0.7,1.7-0.7,2.4,0
	c0,0,0,0,0,0l13.9,13.9c0.7,0.7,0.7,1.7,0,2.4c0,0,0,0,0,0l-1.6,1.6c-0.7,0.7-1.8,0.7-2.4,0c0,0,0,0,0,0l-8.2-8.6v20.5
	c0,0.9-0.8,1.7-1.7,1.7c0,0,0,0,0,0h-2.3c-0.9,0-1.7-0.8-1.7-1.7c0,0,0,0,0,0V9.8l-8.2,8.6C4.3,19,3.2,19.1,2.5,18.4
	C2.5,18.4,2.5,18.4,2.5,18.4z"/>
</svg>
